<?xml version="1.0" standalone="no"?>
<!DOCTYPE svg PUBLIC "-//W3C//DTD SVG 20010904//EN"
 "http://www.w3.org/TR/2001/REC-SVG-20010904/DTD/svg10.dtd">
<svg version="1.0" xmlns="http://www.w3.org/2000/svg"
 width="1080.000000pt" height="133.000000pt" viewBox="0 0 1080.000000 133.000000"
 preserveAspectRatio="xMidYMid meet">

<g transform="translate(0.000000,133.000000) scale(0.100000,-0.100000)"
fill="#000000" stroke="none">
<path d="M0 665 l0 -665 5400 0 5400 0 0 665 0 665 -5400 0 -5400 0 0 -665z
m5120 335 l0 -170 -60 0 -60 0 0 170 0 170 60 0 60 0 0 -170z m504 61 l39 -40
-153 -155 c-84 -86 -158 -156 -165 -156 -6 0 -29 18 -50 40 l-39 40 154 155
c85 85 160 155 165 155 6 0 28 -18 49 -39z m-4391 -132 c26 -32 22 -91 -8
-119 -56 -52 -145 -12 -145 65 0 48 50 89 99 81 20 -3 44 -15 54 -27z m6188 2
c36 -36 38 -79 6 -116 -50 -59 -147 -22 -147 55 0 82 84 118 141 61z m2298 14
c76 -39 43 -157 -44 -157 -89 0 -118 115 -40 160 27 15 51 15 84 -3z m-9170
-220 c51 -107 96 -193 100 -190 3 2 47 89 96 194 l90 191 73 0 72 0 0 -375 0
-376 -72 3 -73 3 -3 205 -3 205 -67 -130 -67 -130 -49 0 -49 0 -68 130 -68
130 -3 -205 -3 -205 -72 -3 -73 -3 0 376 0 375 73 0 72 0 94 -195z m1481 76
l0 -118 47 23 c55 29 104 30 158 5 92 -42 104 -80 105 -338 l0 -203 -70 0 -70
0 0 190 c0 189 0 191 -25 215 -33 34 -87 34 -120 0 -25 -24 -25 -26 -25 -215
l0 -190 -70 0 -70 0 0 375 0 375 70 0 70 0 0 -119z m5940 -256 l0 -375 -66 0
c-57 0 -67 3 -71 19 -5 20 -5 20 -41 0 -49 -25 -130 -25 -182 1 -79 40 -105
117 -98 291 5 132 30 190 93 223 57 30 153 29 194 -2 l31 -23 0 121 0 120 70
0 70 0 0 -375z m2520 76 c0 -333 0 -331 66 -331 l34 0 0 -61 0 -62 -72 6 c-76
7 -105 21 -142 71 -20 26 -21 42 -24 352 l-3 324 70 0 71 0 0 -299z m-7030
209 c24 -12 57 -32 72 -43 35 -26 95 -112 104 -149 l6 -28 -66 0 c-66 0 -66 0
-113 49 -76 78 -157 89 -250 35 -61 -35 -93 -94 -93 -173 0 -108 67 -192 166
-207 81 -12 174 32 211 99 8 15 20 17 82 15 l72 -3 -31 -62 c-33 -67 -85 -119
-152 -155 -37 -20 -58 -23 -148 -23 -97 0 -109 2 -158 29 -64 36 -112 87 -149
158 -24 46 -27 65 -28 143 0 72 4 99 22 137 41 89 116 161 200 193 59 23 196
15 253 -15z m380 -315 l0 -345 -65 0 -65 0 0 345 0 345 65 0 65 0 0 -345z
m-2154 196 c23 -10 54 -36 70 -57 l29 -37 3 -224 3 -224 -68 3 -68 3 -5 193
c-5 189 -6 194 -29 213 -30 24 -82 24 -112 0 -23 -19 -24 -24 -29 -213 l-5
-193 -67 -3 -68 -3 0 276 0 275 65 0 c58 0 65 -2 65 -20 0 -11 1 -20 3 -20 1
0 24 11 51 25 59 30 106 31 162 6z m1072 -13 c32 -17 52 -36 69 -67 22 -42 23
-54 23 -253 l0 -208 -66 0 c-56 0 -67 3 -71 19 -4 17 -6 17 -41 -1 -50 -26
-159 -22 -199 8 -99 73 -99 205 0 278 23 17 46 21 132 24 l105 4 0 28 c0 69
-87 101 -164 61 l-38 -20 -44 37 c-24 20 -44 40 -44 44 0 13 77 60 112 69 58
15 176 3 226 -23z m1524 4 c84 -37 88 -51 88 -309 l0 -223 -65 0 c-63 0 -65 1
-65 25 0 30 3 29 -43 6 -89 -46 -194 -35 -246 24 -28 32 -31 43 -31 98 0 113
45 155 194 182 101 19 116 27 116 61 0 30 -27 44 -83 44 -44 0 -67 -15 -80
-52 -5 -15 -19 -18 -72 -18 -63 0 -65 1 -65 25 0 63 59 132 130 154 53 16 168
7 222 -17z m478 -41 l0 -68 -44 -5 c-45 -5 -84 -28 -108 -63 -9 -14 -14 -68
-16 -188 l-4 -167 -64 0 -64 0 0 265 0 265 65 0 c63 0 65 -1 65 -26 l0 -26 30
25 c27 23 62 38 115 50 11 3 21 5 23 6 1 0 2 -30 2 -68z m410 34 c99 -50 157
-155 148 -269 -6 -72 -26 -116 -77 -169 -59 -63 -104 -82 -196 -82 -69 0 -86
4 -127 27 -158 93 -193 276 -81 425 26 36 98 81 146 94 50 13 134 1 187 -26z
m1021 25 c20 -6 44 -19 54 -30 19 -21 18 -22 -32 -72 -50 -49 -51 -50 -74 -34
-33 23 -73 20 -106 -8 l-28 -24 -3 -192 -3 -191 -67 3 -67 3 -3 273 -2 272 70
0 c65 0 70 -2 70 -21 0 -21 1 -21 27 -4 51 34 103 42 164 25z m433 -24 c77
-45 116 -123 116 -232 l0 -64 -170 0 c-93 0 -170 -2 -170 -5 0 -20 32 -75 51
-89 37 -25 117 -21 160 8 l36 25 37 -38 c20 -20 36 -41 36 -46 0 -6 -23 -26
-51 -45 -50 -34 -54 -35 -149 -35 -90 0 -100 2 -146 30 -38 23 -56 43 -78 89
-26 52 -30 69 -30 150 1 154 53 238 174 277 46 15 137 3 184 -25z m506 14 c19
-5 46 -19 60 -30 l25 -19 -42 -42 -41 -42 -41 17 c-47 18 -113 21 -142 6 -21
-12 -26 -52 -6 -68 6 -5 50 -15 96 -21 139 -18 186 -60 186 -164 0 -74 -24
-115 -88 -150 -36 -19 -57 -22 -152 -22 -94 0 -116 3 -151 22 -71 38 -73 48
-25 97 l42 43 46 -24 c85 -43 193 -25 193 32 0 32 -20 41 -105 50 -126 12
-181 51 -192 133 -11 82 41 160 127 187 48 16 149 14 210 -5z m1266 -8 c81
-42 116 -104 122 -219 l5 -83 -167 0 -166 0 0 -26 c0 -15 12 -38 29 -55 25
-25 37 -29 84 -29 41 0 63 6 90 24 l35 24 42 -43 41 -42 -43 -32 c-56 -41
-107 -54 -193 -49 -160 11 -231 102 -223 291 5 140 50 214 155 253 50 19 138
12 189 -14z m549 9 c46 -21 79 -54 94 -94 7 -17 11 -114 11 -238 l0 -210 -67
3 -68 3 -5 193 c-5 192 -5 194 -30 214 -19 15 -34 19 -64 15 -69 -10 -71 -14
-74 -232 l-3 -195 -70 0 -69 0 0 275 0 275 70 0 c62 0 70 -2 70 -19 0 -17 3
-17 47 5 56 29 104 30 158 5z m488 10 c21 -5 57 -21 79 -36 l40 -27 -47 -48
-47 -48 -32 19 c-55 34 -114 22 -140 -29 -34 -68 -26 -184 16 -229 28 -30 95
-31 130 -4 l25 20 47 -48 48 -49 -34 -24 c-95 -71 -241 -63 -321 18 -40 39
-53 69 -67 143 -25 137 23 271 115 319 58 30 122 38 188 23z m735 -23 c32 -17
52 -36 69 -67 22 -42 23 -54 23 -253 l0 -208 -66 0 c-56 0 -67 3 -71 19 -4 17
-6 17 -41 -1 -50 -26 -159 -22 -199 8 -48 36 -66 70 -71 131 -3 48 0 64 20 92
44 65 68 75 183 79 l105 4 0 28 c0 69 -87 101 -164 61 l-38 -20 -44 37 c-24
20 -44 40 -44 44 0 13 77 60 112 69 58 15 176 3 226 -23z m-8930 -250 l-3
-273 -67 -3 -68 -3 0 276 0 275 70 0 70 0 -2 -272z m6192 -3 l0 -276 -67 3
-68 3 -3 273 -2 272 70 0 70 0 0 -275z m2318 3 l-3 -273 -67 -3 -68 -3 0 276
0 275 70 0 70 0 -2 -272z m-4000 65 l3 -63 -176 0 -175 0 0 65 0 65 173 -2
172 -3 3 -62z"/>
<path d="M7693 585 c-39 -27 -54 -130 -33 -220 12 -51 34 -67 90 -63 40 3 47
7 63 38 14 27 17 54 15 122 -3 75 -6 90 -27 112 -28 30 -74 34 -108 11z"/>
<path d="M2544 375 c-34 -52 20 -103 94 -89 47 9 72 36 72 79 l0 35 -75 0
c-69 0 -76 -2 -91 -25z"/>
<path d="M4205 429 c-11 -4 -46 -15 -78 -24 -63 -17 -85 -43 -73 -89 8 -33 40
-49 81 -42 67 13 103 66 93 138 -2 21 -6 24 -23 17z"/>
<path d="M4973 570 c-82 -49 -91 -165 -18 -229 31 -27 44 -31 90 -31 46 0 59
4 90 31 101 89 42 249 -92 249 -21 0 -52 -9 -70 -20z"/>
<path d="M6441 583 c-16 -16 -32 -40 -35 -55 l-6 -28 101 0 102 0 -7 33 c-14
74 -100 102 -155 50z"/>
<path d="M8219 581 c-17 -17 -29 -40 -29 -55 l0 -26 95 0 95 0 0 26 c0 39 -50
84 -95 84 -27 0 -44 -8 -66 -29z"/>
<path d="M9954 375 c-34 -52 20 -103 94 -89 47 9 72 36 72 79 l0 35 -75 0
c-69 0 -76 -2 -91 -25z"/>
</g>
</svg>
