<?xml version="1.0" standalone="no"?>
<!DOCTYPE svg PUBLIC "-//W3C//DTD SVG 20010904//EN"
 "http://www.w3.org/TR/2001/REC-SVG-20010904/DTD/svg10.dtd">
<svg version="1.0" xmlns="http://www.w3.org/2000/svg"
 width="2048.000000pt" height="2048.000000pt" viewBox="0 0 2048.000000 2048.000000"
 preserveAspectRatio="xMidYMid meet">

<g transform="translate(0.000000,2048.000000) scale(0.100000,-0.100000)"
fill="#000000" stroke="none">
<path d="M6490 13065 l0 -355 3790 0 3790 0 0 355 0 355 -3790 0 -3790 0 0
-355z"/>
<path d="M15020 13060 l0 -360 878 -2 877 -3 3 -1768 2 -1768 238 3 c237 3
237 3 294 31 70 34 130 100 160 176 l23 56 5 1635 5 1635 878 3 877 2 0 360 0
360 -2120 0 -2120 0 0 -360z"/>
<path d="M1300 11281 l0 -2121 360 0 360 0 0 1710 c0 941 3 1710 8 1709 4 0
601 -769 1327 -1709 l1320 -1709 443 0 442 -1 0 2120 0 2120 -365 0 -365 0 -2
-1660 -3 -1661 -1179 1521 c-648 837 -1202 1542 -1230 1567 -101 90 -223 161
-351 204 -67 22 -86 23 -417 27 l-348 3 0 -2120z"/>
<path d="M6490 11295 l0 -355 3790 0 3790 0 0 355 0 355 -3790 0 -3790 0 0
-355z"/>
<path d="M6490 9525 l0 -355 3790 0 3790 0 0 355 0 355 -3790 0 -3790 0 0
-355z"/>
<path d="M10372 8265 c-28 -58 -52 -107 -52 -110 0 -3 26 -5 58 -5 l58 0 54
68 c30 37 69 86 88 110 l34 42 -94 0 -93 0 -53 -105z"/>
<path d="M1750 8071 c-130 -18 -231 -70 -331 -170 -92 -93 -134 -173 -151
-291 -39 -267 118 -517 381 -607 80 -27 253 -31 340 -8 173 46 323 183 382
350 26 74 36 218 20 296 -16 76 -59 163 -114 231 -58 70 -177 151 -260 176
-74 23 -191 33 -267 23z m195 -153 c68 -17 154 -69 202 -122 69 -76 96 -143
101 -247 7 -139 -27 -220 -136 -321 -74 -68 -147 -99 -253 -106 -127 -8 -233
32 -331 126 -162 155 -163 399 -1 561 114 113 256 150 418 109z"/>
<path d="M3441 7883 c-29 -109 -92 -349 -140 -533 l-88 -335 65 -3 c35 -2 66
-2 67 0 2 2 40 143 84 313 45 171 85 318 89 328 5 13 49 -82 151 -327 80 -190
148 -343 151 -341 4 2 69 152 145 332 76 180 141 332 145 336 4 4 19 -38 34
-95 15 -57 53 -202 84 -323 l58 -220 68 -3 c67 -3 68 -2 63 20 -72 283 -273
1038 -277 1038 -4 0 -75 -167 -160 -371 -85 -204 -157 -372 -160 -374 -3 -2
-77 167 -164 376 -88 208 -160 379 -161 379 -1 0 -25 -89 -54 -197z"/>
<path d="M5810 7548 l0 -538 70 0 70 0 0 367 0 366 287 -294 c158 -162 329
-337 380 -389 l93 -95 0 538 0 537 -65 0 -65 0 0 -365 c0 -201 -4 -365 -8
-365 -7 0 -289 287 -689 700 l-73 75 0 -537z"/>
<path d="M8620 8071 c-206 -28 -394 -177 -460 -364 -27 -78 -35 -186 -20 -275
33 -199 195 -375 399 -436 68 -20 245 -21 316 -2 175 46 322 179 382 345 29
79 40 211 24 295 -36 192 -203 370 -393 420 -71 18 -181 26 -248 17z m195
-153 c110 -28 225 -123 273 -225 24 -52 27 -70 27 -163 0 -95 -3 -111 -29
-168 -39 -83 -141 -181 -223 -212 -115 -45 -253 -36 -367 22 -60 31 -153 124
-181 182 -74 154 -42 331 82 455 114 113 257 150 418 109z"/>
<path d="M13150 8069 c-220 -29 -422 -206 -469 -409 -15 -66 -13 -207 4 -275
44 -166 183 -316 350 -377 73 -26 252 -36 337 -19 180 38 354 194 407 365 64
209 17 402 -132 551 -134 134 -304 190 -497 164z m215 -154 c206 -57 338 -289
280 -490 -108 -375 -630 -412 -798 -58 -29 61 -32 77 -31 158 1 121 26 185
106 271 118 126 269 166 443 119z"/>
<path d="M14350 8066 c-66 -14 -89 -27 -142 -74 -58 -52 -81 -104 -81 -182 0
-132 62 -202 267 -300 106 -50 150 -77 178 -108 46 -51 64 -109 48 -158 -58
-175 -316 -157 -401 28 l-11 25 -65 -18 c-36 -10 -68 -21 -71 -23 -11 -11 56
-123 100 -168 72 -74 141 -102 260 -106 87 -3 103 -1 152 21 66 31 131 94 159
156 16 35 22 66 22 126 0 160 -69 243 -301 355 -152 75 -194 109 -194 161 0
78 68 128 172 129 71 0 96 -10 147 -55 l40 -37 56 44 c30 23 55 45 55 48 0 3
-17 22 -37 42 -47 46 -133 86 -210 98 -69 12 -73 12 -143 -4z"/>
<path d="M15640 7545 l0 -535 65 0 65 0 0 366 c0 201 4 364 8 362 5 -1 177
-175 382 -385 205 -211 375 -383 377 -383 1 0 3 241 3 535 l0 535 -70 0 -70 0
0 -367 0 -368 -173 175 c-95 96 -266 271 -380 388 l-207 212 0 -535z"/>
<path d="M18819 8070 c-85 -14 -172 -78 -212 -154 -32 -64 -29 -156 8 -224 41
-76 82 -107 240 -182 153 -73 205 -117 224 -187 21 -77 -24 -158 -104 -189
-109 -41 -243 22 -296 139 l-11 25 -65 -19 c-36 -10 -68 -21 -71 -23 -11 -12
55 -124 100 -169 73 -73 142 -101 260 -105 87 -3 103 -1 152 21 66 31 131 93
159 156 34 71 31 188 -6 263 -42 85 -106 137 -272 218 -153 74 -195 109 -195
161 0 78 68 128 172 129 71 0 96 -10 147 -55 l40 -37 56 44 c30 23 55 45 55
48 0 3 -17 22 -37 42 -47 46 -133 86 -210 98 -64 11 -69 11 -134 0z"/>
<path d="M4690 7682 c0 -289 3 -369 15 -417 32 -123 97 -204 204 -254 51 -24
67 -26 181 -26 121 0 127 1 192 33 70 34 124 87 160 156 41 80 48 152 48 519
l0 347 -70 0 -70 0 0 -353 c0 -404 -4 -429 -71 -502 -47 -51 -107 -75 -188
-75 -79 0 -126 16 -172 57 -89 81 -99 134 -99 550 l0 323 -65 0 -65 0 0 -358z"/>
<path d="M7050 7525 l0 -517 203 5 c133 3 219 10 252 19 205 60 348 220 377
424 35 242 -111 481 -341 556 -57 18 -95 22 -278 26 l-213 4 0 -517z m442 355
c162 -50 275 -236 248 -407 -18 -109 -70 -191 -161 -252 -73 -49 -164 -71
-293 -71 l-96 0 0 382 0 381 118 -6 c75 -4 141 -13 184 -27z"/>
<path d="M10150 7525 l0 -515 285 0 285 0 0 70 0 70 -220 0 -220 0 2 178 3
177 218 3 217 2 0 65 0 65 -220 0 -221 0 3 133 3 132 218 3 217 2 0 65 0 65
-285 0 -285 0 0 -515z"/>
<path d="M11590 7525 l0 -515 164 0 c270 0 391 35 510 150 108 103 156 218
156 371 0 245 -155 438 -397 493 -52 11 -122 16 -252 16 l-181 0 0 -515z m371
371 c121 -22 198 -71 257 -164 122 -192 51 -445 -152 -538 -70 -32 -139 -44
-252 -44 l-94 0 0 373 c0 206 3 377 7 380 11 12 154 7 234 -7z"/>
<path d="M16870 7525 l0 -515 280 0 280 0 0 70 0 70 -215 0 -215 0 2 178 3
177 213 3 212 2 0 65 0 65 -215 0 -216 0 3 133 3 132 213 3 212 2 0 65 0 65
-280 0 -280 0 0 -515z"/>
<path d="M17660 7975 l0 -64 123 -3 122 -3 3 -447 2 -448 65 0 65 0 2 448 3
447 123 3 122 3 0 64 0 65 -315 0 -315 0 0 -65z"/>
</g>
</svg>
