<?xml version="1.0" standalone="no"?>
<!DOCTYPE svg PUBLIC "-//W3C//DTD SVG 20010904//EN"
 "http://www.w3.org/TR/2001/REC-SVG-20010904/DTD/svg10.dtd">
<svg version="1.0" xmlns="http://www.w3.org/2000/svg"
 width="512.000000pt" height="512.000000pt" viewBox="0 0 512.000000 512.000000"
 preserveAspectRatio="xMidYMid meet">

<g transform="translate(0.000000,512.000000) scale(0.100000,-0.100000)"
fill="#000000" stroke="none">
<path d="M0 2560 l0 -2560 2560 0 2560 0 0 2560 0 2560 -2560 0 -2560 0 0
-2560z m1687 1248 c32 -30 31 -81 -2 -113 -49 -50 -134 -13 -135 58 0 65 88
101 137 55z m-632 -196 l90 -183 89 185 89 186 68 0 69 0 0 -345 0 -345 -70 0
-70 0 -1 193 0 192 -62 -122 -62 -123 -50 0 -50 0 -62 123 -62 122 0 -192 -1
-193 -70 0 -70 0 0 345 0 346 68 -3 67 -3 90 -183z m1385 72 l0 -115 31 22
c72 51 183 28 230 -48 23 -36 24 -49 27 -235 l4 -198 -66 0 -66 0 0 170 c0
168 0 171 -25 195 -15 16 -36 25 -55 25 -19 0 -40 -9 -55 -25 -25 -24 -25 -27
-25 -195 l0 -170 -65 0 -65 0 0 345 0 345 65 0 65 0 0 -116z m-340 -74 c43
-12 93 -62 109 -109 6 -20 11 -106 11 -212 l0 -179 -65 0 -65 0 0 148 c0 203
-14 242 -85 242 -72 0 -85 -36 -85 -236 l0 -154 -65 0 -65 0 0 250 0 250 65 0
c60 0 65 -2 65 -22 0 -20 1 -20 19 -4 36 33 100 43 161 26z m975 -1 c57 -16
95 -46 116 -93 16 -35 19 -67 19 -223 l0 -183 -65 0 c-53 0 -65 3 -65 16 0 9
-3 14 -7 12 -63 -33 -92 -40 -136 -34 -69 8 -108 33 -135 88 -30 60 -23 114
20 164 36 41 79 54 181 54 l79 0 -7 33 c-11 49 -29 62 -89 62 -39 0 -60 -5
-75 -19 -22 -20 -22 -20 -64 23 l-42 42 30 24 c51 42 158 57 240 34z m-1375
-249 l0 -250 -70 0 -70 0 0 250 0 250 70 0 70 0 0 -250z m1790 -245 l0 -216
-72 3 -73 3 -3 200 c-1 110 0 205 2 212 4 9 28 13 76 13 l70 0 0 -215z m625
75 l50 -50 -198 -197 -197 -198 -56 55 -55 55 198 192 c109 106 200 192 203
193 3 0 28 -23 55 -50z m-2730 -267 c97 -34 194 -119 239 -209 41 -82 39 -84
-57 -84 l-82 0 -35 47 c-50 67 -114 98 -205 98 -58 0 -78 -5 -116 -27 -92 -54
-129 -120 -129 -228 0 -86 20 -131 84 -187 49 -43 101 -63 166 -63 79 0 121
20 187 87 l61 63 76 0 c67 0 76 -2 76 -18 0 -36 -55 -128 -106 -178 -208 -204
-552 -141 -677 123 -30 64 -32 75 -32 178 0 104 2 114 32 176 59 121 192 221
317 239 62 9 147 2 201 -17z m515 -398 l0 -426 -82 3 -83 3 -3 410 c-1 225 0
416 3 422 3 9 30 13 85 13 l80 0 0 -425z m557 219 c47 -23 62 -38 81 -74 21
-43 22 -54 22 -307 l0 -263 -85 0 -85 0 0 28 0 29 -48 -24 c-59 -29 -161 -40
-221 -23 -130 35 -174 208 -80 315 37 42 105 68 223 86 99 14 132 34 120 72
-10 36 -29 49 -78 54 -62 7 -105 -12 -122 -54 l-14 -33 -80 0 c-75 0 -80 1
-80 21 0 46 25 102 63 140 54 54 109 70 229 65 83 -2 105 -7 155 -32z m593
-49 l0 -85 -42 0 c-58 0 -122 -34 -150 -78 -22 -35 -23 -49 -26 -235 l-4 -198
-81 3 -82 3 0 320 0 320 80 0 80 0 3 -33 3 -32 41 35 c40 33 108 62 156 64 21
1 22 -2 22 -84z m411 75 c111 -21 200 -90 248 -190 22 -47 26 -69 26 -145 0
-74 -4 -98 -23 -137 -37 -74 -96 -134 -168 -169 -57 -28 -76 -33 -144 -33 -68
0 -87 5 -144 33 -79 39 -147 112 -177 191 -27 72 -23 193 10 260 41 87 128
159 221 184 68 18 83 19 151 6z m809 -255 l0 -75 -215 0 -215 0 0 75 0 75 215
0 215 0 0 -75z m-1316 -452 c-88 -137 -84 -133 -125 -133 -22 0 -39 4 -39 9 0
6 12 42 26 80 l26 71 65 0 65 0 -18 -27z m1234 -293 c3 -283 2 -280 55 -280
26 0 27 -2 27 -50 l0 -50 -55 0 c-73 0 -112 21 -136 73 -17 38 -19 68 -19 303
0 143 3 264 7 268 4 4 32 6 63 4 l55 -3 3 -265z m-2030 85 c20 -9 42 -22 48
-31 10 -13 17 -12 49 10 92 63 213 36 255 -57 17 -36 20 -66 20 -214 l0 -173
-59 0 -60 0 -3 165 c-3 140 -6 167 -20 182 -23 23 -82 22 -108 -2 -19 -17 -20
-29 -20 -182 l0 -163 -65 0 -65 0 0 163 c0 144 -2 166 -17 179 -46 40 -104 29
-122 -23 -6 -18 -11 -95 -11 -175 l0 -144 -60 0 -60 0 0 235 0 235 60 0 c47 0
60 -3 60 -15 0 -19 -2 -19 45 5 47 24 83 25 133 5z m745 3 c93 -28 144 -129
134 -264 -8 -113 -48 -173 -136 -202 -94 -32 -199 7 -244 91 -18 35 -22 58
-22 142 0 92 2 104 28 147 49 84 140 116 240 86z m953 -15 c56 -29 93 -86 106
-165 17 -102 22 -98 -147 -98 -96 0 -145 -4 -145 -11 0 -16 21 -53 39 -66 26
-20 114 -16 143 7 l25 19 38 -39 38 -39 -48 -30 c-112 -71 -262 -45 -321 55
-33 56 -44 168 -24 239 16 58 73 122 125 141 51 18 122 13 171 -13z m-607
-126 l46 -138 46 138 45 138 62 3 c34 2 62 -1 62 -5 0 -4 -37 -110 -82 -235
l-83 -228 -50 0 -50 0 -86 236 -86 235 65 -3 65 -3 46 -138z"/>
<path d="M2932 3304 c-49 -34 -14 -94 55 -94 51 0 79 23 87 73 l7 37 -63 0
c-41 0 -71 -5 -86 -16z"/>
<path d="M2280 2395 c-101 -28 -125 -49 -117 -108 3 -21 14 -45 24 -52 38 -29
127 -11 168 34 13 16 20 41 23 87 2 35 0 63 -4 63 -5 -1 -47 -12 -94 -24z"/>
<path d="M3315 2591 c-94 -57 -119 -164 -60 -253 70 -105 227 -101 291 8 56
96 18 216 -79 253 -44 17 -118 13 -152 -8z"/>
<path d="M2803 1750 c-34 -14 -43 -42 -43 -130 0 -73 3 -83 25 -105 31 -32 69
-32 100 0 23 22 25 32 25 108 0 66 -4 89 -17 105 -21 25 -60 35 -90 22z"/>
<path d="M3695 1735 c-14 -13 -25 -33 -25 -45 0 -19 6 -20 85 -20 76 0 85 2
85 19 0 10 -9 30 -21 45 -28 36 -89 37 -124 1z"/>
</g>
</svg>
