<svg xmlns="http://www.w3.org/2000/svg" width="149.626" height="145.921" viewBox="0 0 149.626 145.921">
  <path id="Icon_simple-github" data-name="Icon simple-github" d="M74.813.446a74.816,74.816,0,0,0-23.66,145.792c3.741.7,5.112-1.608,5.112-3.6,0-1.777-.062-6.484-.094-12.718-20.811,4.514-25.2-10.037-25.2-10.037-3.4-8.635-8.323-10.941-8.323-10.941-6.777-4.638.524-4.545.524-4.545,7.512.524,11.459,7.706,11.459,7.706,6.671,11.44,17.513,8.136,21.789,6.222.673-4.838,2.6-8.136,4.738-10.006-16.615-1.87-34.077-8.3-34.077-36.97a28.862,28.862,0,0,1,7.7-20.075c-.842-1.889-3.367-9.5.655-19.8,0,0,6.266-2.007,20.574,7.668a70.534,70.534,0,0,1,37.407,0c14.214-9.676,20.48-7.668,20.48-7.668,4.021,10.306,1.5,17.912.748,19.8a28.981,28.981,0,0,1,7.668,20.075c0,28.741-17.488,35.069-34.133,36.908,2.618,2.244,5.05,6.833,5.05,13.84,0,10.012-.094,18.055-.094,20.486,0,1.964,1.309,4.3,5.143,3.554A74.721,74.721,0,0,0,74.813.445" transform="translate(0 -0.445)"/>
</svg>
